<svg xmlns="http://www.w3.org/2000/svg" xmlns:xlink="http://www.w3.org/1999/xlink" width="348" zoomAndPan="magnify" viewBox="0 0 261 260.999984" height="348" preserveAspectRatio="xMidYMid meet" version="1.2"><defs><clipPath id="c27bb20a96"><path d="M 36.332031 36.03125 L 225.046875 36.03125 L 225.046875 224.746094 L 36.332031 224.746094 Z M 36.332031 36.03125 "/></clipPath><clipPath id="b865992b62"><path d="M 130.691406 36.03125 C 78.578125 36.03125 36.332031 78.277344 36.332031 130.386719 C 36.332031 182.5 78.578125 224.746094 130.691406 224.746094 C 182.800781 224.746094 225.046875 182.5 225.046875 130.386719 C 225.046875 78.277344 182.800781 36.03125 130.691406 36.03125 Z M 130.691406 36.03125 "/></clipPath><clipPath id="3286464774"><path d="M 36.332031 36.03125 L 224.738281 36.03125 L 224.738281 224.433594 L 36.332031 224.433594 Z M 36.332031 36.03125 "/></clipPath><clipPath id="19cbbfb65d"><path d="M 130.535156 36.03125 C 78.507812 36.03125 36.332031 78.207031 36.332031 130.230469 C 36.332031 182.257812 78.507812 224.433594 130.535156 224.433594 C 182.5625 224.433594 224.738281 182.257812 224.738281 130.230469 C 224.738281 78.207031 182.5625 36.03125 130.535156 36.03125 Z M 130.535156 36.03125 "/></clipPath><clipPath id="d9b67f8220"><path d="M 61.695312 61.695312 L 199.304688 61.695312 L 199.304688 199.304688 L 61.695312 199.304688 Z M 61.695312 61.695312 "/></clipPath><clipPath id="43a5f4cbf3"><path d="M 130.5 61.695312 C 92.5 61.695312 61.695312 92.5 61.695312 130.5 C 61.695312 168.5 92.5 199.304688 130.5 199.304688 C 168.5 199.304688 199.304688 168.5 199.304688 130.5 C 199.304688 92.5 168.5 61.695312 130.5 61.695312 Z M 130.5 61.695312 "/></clipPath><clipPath id="464313114b"><path d="M 61.695312 61.695312 L 199.054688 61.695312 L 199.054688 199.054688 L 61.695312 199.054688 Z M 61.695312 61.695312 "/></clipPath><clipPath id="f0228793c5"><path d="M 130.375 61.695312 C 92.445312 61.695312 61.695312 92.445312 61.695312 130.375 C 61.695312 168.304688 92.445312 199.054688 130.375 199.054688 C 168.304688 199.054688 199.054688 168.304688 199.054688 130.375 C 199.054688 92.445312 168.304688 61.695312 130.375 61.695312 Z M 130.375 61.695312 "/></clipPath><clipPath id="96597b9484"><path d="M 88 220 L 186 220 L 186 261 L 88 261 Z M 88 220 "/></clipPath><clipPath id="522cb071fd"><path d="M 120.96875 197.179688 L 210.585938 271.375 L 142.132812 354.054688 L 52.515625 279.859375 Z M 120.96875 197.179688 "/></clipPath><clipPath id="316f6b2f0d"><path d="M 120.96875 197.179688 L 210.585938 271.375 L 142.132812 354.054688 L 52.515625 279.859375 Z M 120.96875 197.179688 "/></clipPath><clipPath id="ac6145c592"><path d="M 27.839844 125.90625 L 233.515625 125.90625 L 233.515625 136.613281 L 27.839844 136.613281 Z M 27.839844 125.90625 "/></clipPath><clipPath id="bdb4c0248e"><path d="M 126.238281 28.417969 L 136.949219 28.417969 L 136.949219 234.09375 L 126.238281 234.09375 Z M 126.238281 28.417969 "/></clipPath><clipPath id="9978a437c0"><path d="M 82.164062 83.488281 L 178.835938 83.488281 L 178.835938 180.15625 L 82.164062 180.15625 Z M 82.164062 83.488281 "/></clipPath><clipPath id="d5497642a7"><path d="M 130.5 83.488281 C 103.804688 83.488281 82.164062 105.128906 82.164062 131.820312 C 82.164062 158.515625 103.804688 180.15625 130.5 180.15625 C 157.195312 180.15625 178.835938 158.515625 178.835938 131.820312 C 178.835938 105.128906 157.195312 83.488281 130.5 83.488281 Z M 130.5 83.488281 "/></clipPath><clipPath id="19db775eca"><path d="M 82.164062 83.488281 L 178.828125 83.488281 L 178.828125 180.152344 L 82.164062 180.152344 Z M 82.164062 83.488281 "/></clipPath><clipPath id="fb4cbcd8aa"><path d="M 130.496094 83.488281 C 103.804688 83.488281 82.164062 105.125 82.164062 131.820312 C 82.164062 158.511719 103.804688 180.152344 130.496094 180.152344 C 157.191406 180.152344 178.828125 158.511719 178.828125 131.820312 C 178.828125 105.125 157.191406 83.488281 130.496094 83.488281 Z M 130.496094 83.488281 "/></clipPath><clipPath id="7c5c91eb0f"><path d="M 221 76 L 261 76 L 261 174 L 221 174 Z M 221 76 "/></clipPath><clipPath id="936e274bd8"><path d="M 198.851562 140.683594 L 273.589844 51.519531 L 355.851562 120.476562 L 281.109375 209.636719 Z M 198.851562 140.683594 "/></clipPath><clipPath id="26e810f7d8"><path d="M 198.851562 140.683594 L 273.589844 51.519531 L 355.851562 120.476562 L 281.109375 209.636719 Z M 198.851562 140.683594 "/></clipPath><clipPath id="ad400c6f7d"><path d="M 76 0 L 176 0 L 176 40 L 76 40 Z M 76 0 "/></clipPath><clipPath id="eca2456375"><path d="M 143.828125 62.617188 L 52.011719 -8.835938 L 117.933594 -93.542969 L 209.753906 -22.089844 Z M 143.828125 62.617188 "/></clipPath><clipPath id="1d7cf9546f"><path d="M 143.828125 62.617188 L 52.011719 -8.835938 L 117.933594 -93.542969 L 209.753906 -22.089844 Z M 143.828125 62.617188 "/></clipPath><clipPath id="2c5540cff7"><path d="M 0 87 L 41 87 L 41 184 L 0 184 Z M 0 87 "/></clipPath><clipPath id="e09bbfdeff"><path d="M 63.925781 120.875 L -11.585938 209.390625 L -93.246094 139.726562 L -17.734375 51.210938 Z M 63.925781 120.875 "/></clipPath><clipPath id="9c26400b9a"><path d="M 63.925781 120.875 L -11.585938 209.390625 L -93.246094 139.726562 L -17.734375 51.210938 Z M 63.925781 120.875 "/></clipPath></defs><g id="6f15455fba"><g clip-rule="nonzero" clip-path="url(#c27bb20a96)"><g clip-rule="nonzero" clip-path="url(#b865992b62)"><path style=" stroke:none;fill-rule:nonzero;fill:#456451;fill-opacity:1;" d="M 36.332031 36.03125 L 225.046875 36.03125 L 225.046875 224.746094 L 36.332031 224.746094 Z M 36.332031 36.03125 "/></g></g><g clip-rule="nonzero" clip-path="url(#3286464774)"><g clip-rule="nonzero" clip-path="url(#19cbbfb65d)"><path style="fill:none;stroke-width:6;stroke-linecap:butt;stroke-linejoin:miter;stroke:#456451;stroke-opacity:1;stroke-miterlimit:4;" d="M 125.703626 0.000924088 C 56.278147 0.000924088 -0.00137076 56.280442 -0.00137076 125.700709 C -0.00137076 195.126188 56.278147 251.405706 125.703626 251.405706 C 195.129105 251.405706 251.408623 195.126188 251.408623 125.700709 C 251.408623 56.280442 195.129105 0.000924088 125.703626 0.000924088 Z M 125.703626 0.000924088 " transform="matrix(0.749398,0,0,0.749398,36.333058,36.030557)"/></g></g><g clip-rule="nonzero" clip-path="url(#d9b67f8220)"><g clip-rule="nonzero" clip-path="url(#43a5f4cbf3)"><path style=" stroke:none;fill-rule:nonzero;fill:#ffde59;fill-opacity:1;" d="M 61.695312 61.695312 L 199.304688 61.695312 L 199.304688 199.304688 L 61.695312 199.304688 Z M 61.695312 61.695312 "/></g></g><g clip-rule="nonzero" clip-path="url(#464313114b)"><g clip-rule="nonzero" clip-path="url(#f0228793c5)"><path style="fill:none;stroke-width:6;stroke-linecap:butt;stroke-linejoin:miter;stroke:#ffde59;stroke-opacity:1;stroke-miterlimit:4;" d="M 91.664021 0.00165929 C 41.041693 0.00165929 0.00163527 41.041717 0.00163527 91.664045 C 0.00163527 142.286373 41.041693 183.326431 91.664021 183.326431 C 142.286349 183.326431 183.326407 142.286373 183.326407 91.664045 C 183.326407 41.041717 142.286349 0.00165929 91.664021 0.00165929 Z M 91.664021 0.00165929 " transform="matrix(0.749268,0,0,0.749268,61.694087,61.694069)"/></g></g><g clip-rule="nonzero" clip-path="url(#96597b9484)"><g clip-rule="nonzero" clip-path="url(#522cb071fd)"><g clip-rule="nonzero" clip-path="url(#316f6b2f0d)"><path style=" stroke:none;fill-rule:nonzero;fill:#ffde59;fill-opacity:1;" d="M 183.429688 291.046875 C 179.515625 284.855469 171.980469 282.726562 167.246094 277.386719 C 165.167969 275.03125 163.542969 271.894531 163.871094 268.65625 C 164.207031 265.273438 166.601562 262.695312 168.875 260.359375 C 170.902344 258.265625 173.089844 256.078125 174.09375 253.285156 C 174.886719 251.109375 174.828125 248.742188 174.171875 246.515625 C 172.585938 240.984375 167.992188 236.472656 163.785156 232.800781 C 163.25 232.320312 162.695312 231.863281 162.144531 231.402344 C 145.664062 218.058594 123.25 216.574219 105.074219 227.296875 C 95.785156 232.789062 84.171875 241.625 89.285156 253.851562 C 91.367188 258.828125 95.101562 262.886719 97.320312 267.789062 C 98.535156 270.472656 99.210938 273.3125 98.875 276.285156 C 98.515625 279.382812 97.273438 282.28125 95.941406 285.0625 C 93.449219 290.28125 90.820312 295.3125 90.707031 301.265625 C 90.605469 306.710938 92.550781 312.210938 96.878906 315.644531 C 100.988281 318.894531 106.523438 319.964844 111.289062 317.636719 C 114.121094 316.246094 116.410156 314.070312 118.933594 312.238281 C 121.628906 310.25 124.625 308.882812 127.933594 308.222656 C 140.691406 305.675781 152.914062 312.25 165.613281 312.117188 C 171.574219 312.042969 178.035156 310.375 182.050781 305.703125 C 185.640625 301.503906 186.402344 295.710938 183.429688 291.046875 Z M 183.429688 291.046875 "/></g></g></g><g clip-rule="nonzero" clip-path="url(#ac6145c592)"><path style=" stroke:none;fill-rule:nonzero;fill:#ffde59;fill-opacity:1;" d="M 27.839844 125.90625 L 233.496094 125.90625 L 233.496094 136.613281 L 27.839844 136.613281 Z M 27.839844 125.90625 "/></g><g clip-rule="nonzero" clip-path="url(#bdb4c0248e)"><path style=" stroke:none;fill-rule:nonzero;fill:#ffde59;fill-opacity:1;" d="M 126.238281 234.09375 L 126.238281 28.4375 L 136.949219 28.4375 L 136.949219 234.09375 Z M 126.238281 234.09375 "/></g><g clip-rule="nonzero" clip-path="url(#9978a437c0)"><g clip-rule="nonzero" clip-path="url(#d5497642a7)"><path style=" stroke:none;fill-rule:nonzero;fill:#ffffff;fill-opacity:1;" d="M 82.164062 83.488281 L 178.835938 83.488281 L 178.835938 180.15625 L 82.164062 180.15625 Z M 82.164062 83.488281 "/></g></g><g clip-rule="nonzero" clip-path="url(#19db775eca)"><g clip-rule="nonzero" clip-path="url(#fb4cbcd8aa)"><path style="fill:none;stroke-width:6;stroke-linecap:butt;stroke-linejoin:miter;stroke:#456451;stroke-opacity:1;stroke-miterlimit:4;" d="M 64.388692 0.00144395 C 28.829137 0.00144395 -0.00152761 28.826905 -0.00152761 64.391664 C -0.00152761 99.951219 28.829137 128.781884 64.388692 128.781884 C 99.953451 128.781884 128.778912 99.951219 128.778912 64.391664 C 128.778912 28.826905 99.953451 0.00144395 64.388692 0.00144395 Z M 64.388692 0.00144395 " transform="matrix(0.750611,0,0,0.750611,82.165209,83.487197)"/></g></g><g clip-rule="nonzero" clip-path="url(#7c5c91eb0f)"><g clip-rule="nonzero" clip-path="url(#936e274bd8)"><g clip-rule="nonzero" clip-path="url(#26e810f7d8)"><path style=" stroke:none;fill-rule:nonzero;fill:#ffde59;fill-opacity:1;" d="M 293.097656 78.796875 C 286.882812 82.671875 284.703125 90.195312 279.339844 94.894531 C 276.96875 96.960938 273.820312 98.566406 270.585938 98.21875 C 267.203125 97.859375 264.644531 95.453125 262.316406 93.164062 C 260.238281 91.121094 258.066406 88.925781 255.28125 87.902344 C 253.105469 87.09375 250.738281 87.136719 248.507812 87.785156 C 242.96875 89.332031 238.429688 93.898438 234.730469 98.085938 C 234.25 98.617188 233.785156 99.167969 233.324219 99.71875 C 219.878906 116.117188 218.257812 138.519531 228.867188 156.761719 C 234.304688 166.085938 243.070312 177.75 255.328125 172.710938 C 260.316406 170.660156 264.398438 166.949219 269.3125 164.761719 C 272.003906 163.566406 274.847656 162.90625 277.820312 163.257812 C 280.917969 163.636719 283.804688 164.894531 286.578125 166.242188 C 291.78125 168.769531 296.796875 171.429688 302.75 171.582031 C 308.195312 171.714844 313.703125 169.800781 317.164062 165.492188 C 320.441406 161.40625 321.546875 155.875 319.246094 151.09375 C 317.875 148.253906 315.710938 145.953125 313.894531 143.417969 C 311.921875 140.710938 310.574219 137.707031 309.933594 134.394531 C 307.464844 121.621094 314.109375 109.4375 314.054688 96.738281 C 314.019531 90.78125 312.390625 84.308594 307.746094 80.261719 C 303.566406 76.648438 297.777344 75.851562 293.097656 78.796875 Z M 293.097656 78.796875 "/></g></g></g><g clip-rule="nonzero" clip-path="url(#ad400c6f7d)"><g clip-rule="nonzero" clip-path="url(#eca2456375)"><g clip-rule="nonzero" clip-path="url(#1d7cf9546f)"><path style=" stroke:none;fill-rule:nonzero;fill:#ffde59;fill-opacity:1;" d="M 78.5625 -29.320312 C 82.660156 -23.25 90.257812 -21.347656 95.148438 -16.15625 C 97.300781 -13.859375 99.015625 -10.773438 98.785156 -7.527344 C 98.554688 -4.136719 96.238281 -1.488281 94.039062 0.917969 C 92.070312 3.070312 89.953125 5.320312 89.035156 8.140625 C 88.304688 10.34375 88.433594 12.707031 89.160156 14.910156 C 90.910156 20.394531 95.636719 24.765625 99.953125 28.304688 C 100.503906 28.769531 101.074219 29.210938 101.640625 29.652344 C 118.515625 42.496094 140.960938 43.304688 158.804688 32.035156 C 167.925781 26.265625 179.265625 17.082031 173.785156 5.015625 C 171.554688 0.105469 167.699219 -3.839844 165.332031 -8.671875 C 164.039062 -11.320312 163.277344 -14.136719 163.519531 -17.117188 C 163.789062 -20.226562 164.941406 -23.15625 166.1875 -25.980469 C 168.519531 -31.273438 171 -36.378906 170.933594 -42.335938 C 170.871094 -47.78125 168.757812 -53.214844 164.328125 -56.519531 C 160.125 -59.644531 154.558594 -60.546875 149.863281 -58.078125 C 147.074219 -56.601562 144.855469 -54.355469 142.386719 -52.449219 C 139.753906 -50.378906 136.800781 -48.921875 133.511719 -48.164062 C 120.839844 -45.230469 108.421875 -51.433594 95.734375 -50.914062 C 89.777344 -50.664062 83.367188 -48.800781 79.496094 -44.011719 C 76.035156 -39.707031 75.449219 -33.890625 78.5625 -29.320312 Z M 78.5625 -29.320312 "/></g></g></g><g clip-rule="nonzero" clip-path="url(#2c5540cff7)"><g clip-rule="nonzero" clip-path="url(#e09bbfdeff)"><g clip-rule="nonzero" clip-path="url(#9c26400b9a)"><path style=" stroke:none;fill-rule:nonzero;fill:#ffde59;fill-opacity:1;" d="M -30.855469 181.945312 C -24.605469 178.125 -22.363281 170.621094 -16.957031 165.96875 C -14.570312 163.921875 -11.410156 162.34375 -8.175781 162.722656 C -4.796875 163.105469 -2.257812 165.539062 0.046875 167.84375 C 2.109375 169.90625 4.261719 172.121094 7.039062 173.167969 C 9.207031 173.996094 11.574219 173.972656 13.808594 173.34375 C 19.363281 171.84375 23.941406 167.316406 27.675781 163.164062 C 28.164062 162.636719 28.628906 162.089844 29.097656 161.542969 C 42.683594 145.261719 44.5 122.875 34.046875 104.539062 C 28.691406 95.167969 20.027344 83.429688 7.726562 88.363281 C 2.722656 90.371094 -1.394531 94.042969 -6.328125 96.191406 C -9.03125 97.363281 -11.878906 97.996094 -14.847656 97.621094 C -17.9375 97.210938 -20.816406 95.929688 -23.578125 94.558594 C -28.761719 91.988281 -33.75 89.28125 -39.707031 89.082031 C -45.148438 88.902344 -50.671875 90.765625 -54.171875 95.042969 C -57.480469 99.101562 -58.636719 104.621094 -56.378906 109.421875 C -55.027344 112.273438 -52.886719 114.59375 -51.09375 117.144531 C -49.140625 119.867188 -47.820312 122.886719 -47.210938 126.207031 C -44.851562 138.996094 -51.601562 151.125 -51.65625 163.820312 C -51.675781 169.78125 -50.097656 176.269531 -45.488281 180.351562 C -41.34375 184.003906 -35.5625 184.851562 -30.855469 181.945312 Z M -30.855469 181.945312 "/></g></g></g></g></svg>